<svg width="32" height="32" viewBox="0 0 32 32" fill="none" xmlns="http://www.w3.org/2000/svg">
<path d="M15.8281 13.2711C17.9274 13.2711 19.6284 11.5571 19.6284 9.44158C19.6284 7.32607 17.9274 5.61206 15.8281 5.61206C13.7287 5.61206 12.0278 7.32607 12.0278 9.44158C12.0278 11.5571 13.7287 13.2711 15.8281 13.2711ZM15.8281 8.16509C16.5282 8.16509 17.0948 8.73605 17.0948 9.44158C17.0948 10.1471 16.5282 10.7181 15.8281 10.7181C15.1279 10.7181 14.5613 10.1471 14.5613 9.44158C14.5613 8.73605 15.1279 8.16509 15.8281 8.16509Z" fill="#140D4F"/>
<path d="M14.1796 24.2915L14.695 25.3304C15.1619 26.2714 16.4945 26.2712 16.9612 25.3302L18.0531 23.1282C19.1496 20.9201 20.1872 19.1777 22.5519 15.4321L22.6134 15.3346C22.9609 14.7842 23.1289 14.5178 23.3285 14.2001C24.2166 12.7866 24.6954 11.1489 24.6954 9.44147C24.6954 4.11413 20.1024 -0.0438265 14.7917 0.565187C10.8401 1.0194 7.59561 4.20532 7.04873 8.17187C6.72149 10.5464 7.32211 12.8627 8.68321 14.725C10.5141 17.2259 11.924 19.7473 14.1796 24.2915ZM9.55823 8.52311C9.94586 5.71146 12.2754 3.42398 15.0786 3.10177C18.8821 2.66556 22.1619 5.63463 22.1619 9.44147C22.1619 10.6615 21.8214 11.8262 21.1879 12.8345C20.9896 13.1502 20.8224 13.4154 20.4759 13.9643L20.4144 14.0617C18.0304 17.8379 16.9594 19.6338 15.8255 21.9094C13.8543 17.9983 12.4842 15.6165 10.7227 13.2102C9.75026 11.8796 9.32279 10.2312 9.55823 8.52311Z" fill="#140D4F"/>
<path d="M23.719 19.2366C23.0382 19.074 22.3556 19.4982 22.1941 20.1842C22.0326 20.8701 22.4537 21.5581 23.1344 21.7207C26.5316 22.5325 28.4962 23.8314 28.4962 24.7588C28.4962 26.5227 22.8582 28.5883 15.8286 28.5883C8.79817 28.5883 3.16096 26.5229 3.16096 24.7588C3.16096 23.8309 5.12364 22.5324 8.51915 21.7207C9.19987 21.5581 9.62082 20.8701 9.45936 20.1841C9.29791 19.4981 8.61516 19.074 7.93443 19.2367C3.48981 20.2991 0.627411 22.1929 0.627411 24.7589C0.627411 28.6365 7.46403 31.1414 15.8286 31.1414C24.1924 31.1414 31.0298 28.6364 31.0298 24.7589C31.0298 22.1928 28.1656 20.2992 23.719 19.2366Z" fill="#140D4F"/>
</svg>
