<svg width="21" height="20" viewBox="0 0 21 20" fill="none" xmlns="http://www.w3.org/2000/svg">
<path d="M16.6217 19.7436C16.5069 19.7436 16.3916 19.7159 16.2859 19.66L10.8048 16.7562L5.32368 19.66C5.08043 19.7888 4.78572 19.7674 4.56343 19.6046C4.34109 19.4419 4.2298 19.166 4.27623 18.893L5.32299 12.7427L0.888669 8.38711C0.691907 8.19384 0.621103 7.90473 0.705999 7.64145C0.790894 7.37811 1.01682 7.18618 1.28877 7.14631L7.4169 6.24905L10.1575 0.653313C10.279 0.40499 10.53 0.247803 10.8048 0.247803C11.0795 0.247803 11.3306 0.40499 11.4521 0.653313L14.1927 6.24905L20.3207 7.14631C20.5927 7.18618 20.8186 7.37805 20.9035 7.64145C20.9885 7.90473 20.9177 8.19384 20.7208 8.38711L16.2865 12.7428L17.3333 18.8931C17.3797 19.166 17.2684 19.4419 17.0461 19.6046C16.9203 19.6967 16.7715 19.7436 16.6217 19.7436ZM2.94389 8.37425L6.6026 11.968C6.77274 12.1351 6.85041 12.3759 6.81016 12.6118L5.94648 17.6863L10.4688 15.2903C10.6791 15.1789 10.9304 15.1789 11.1407 15.2903L15.663 17.6862L14.7993 12.6118C14.7592 12.3758 14.8368 12.1351 15.0069 11.968L18.6657 8.37425L13.6095 7.63388C13.3744 7.59943 13.1711 7.45068 13.066 7.23594L10.8049 2.619L8.5437 7.23594C8.43859 7.45062 8.23525 7.59943 8.00014 7.63388L2.94389 8.37425Z" fill="black"/>
</svg>
